<svg xmlns="http://www.w3.org/2000/svg" fill="none" viewBox="0 0 28 28">
  <defs/>
  <path fill="currentColor" fill-rule="evenodd" d="M8.6 6.8c0-3.2 2.6-5.8 5.8-5.8 3.2 0 5.9 2.6 5.9 5.8v5.7c0 3.2-2.7 5.8-5.9 5.8a5.8 5.8 0 01-5.8-5.8V6.8zm5.8-3.5c-2 0-3.5 1.6-3.5 3.5v5.7c0 2 1.6 3.5 3.5 3.5 2 0 3.5-1.5 3.5-3.5V6.8c0-2-1.5-3.5-3.5-3.5z" clip-rule="evenodd"/>
  <path fill="currentColor" d="M12.5 24.9c.4 0 .8-.4.8-.8v-1.5c-4.9-.5-8.7-4.3-9.3-9.1 0-.7.5-1.2 1.1-1.2.7 0 1.2.5 1.3 1.2a8.2 8.2 0 0016.2 0c0-.7.6-1.2 1.2-1.2.7 0 1.2.5 1.1 1.2-.5 4.8-4.4 8.6-9.3 9.1v1.5c0 .4.4.8.8.8h2.3c.4 0 .8.3.8.8v.7c0 .4-.4.8-.8.8h-8.4a.8.8 0 01-.8-.8v-.7c0-.5.4-.8.8-.8h2.2z"/>
</svg>
