<svg xmlns="http://www.w3.org/2000/svg" fill="none" viewBox="0 0 28 28">
  <defs/>
  <path fill="currentColor" fill-rule="evenodd" d="M26.41 9.61c.79-.77.79-2.03 0-2.81l-5.27-5.22a2.03 2.03 0 00-2.84 0L3.55 16.14c-.4.4-.67.88-.8 1.42l-1.7 6.99a2 2 0 002.53 2.37l6.76-1.96c.48-.14.92-.4 1.28-.75l14.79-14.6zm-5.95 3.06L10.2 22.8a1 1 0 01-.43.26l-5.6 1.61a.7.7 0 01-.87-.83l1.4-5.82a1 1 0 01.27-.47L15.2 7.45l5.27 5.22zm1.43-1.4l-5.27-5.22 2.4-2.37a1 1 0 011.4 0l3.85 3.81a1 1 0 010 1.42l-2.38 2.36z" clip-rule="evenodd"/>
</svg>
