<svg xmlns="http://www.w3.org/2000/svg" fill="none" viewBox="0 0 28 28">
  <defs/>
  <path fill="currentColor" fill-rule="evenodd" d="M14 20a6 6 0 100-12 6 6 0 000 12zm4-6a4 4 0 11-8 0 4 4 0 018 0z" clip-rule="evenodd"/>
  <path fill="currentColor" fill-rule="evenodd" d="M0 13v2a3 3 0 002.7 3l.4 1a3 3 0 00.2 4l1.4 1.5a3 3 0 004 .3l1.3.5a3 3 0 003 2.7h2a3 3 0 003-2.7l1.2-.5a3 3 0 003.9-.3l1.4-1.4a3 3 0 00.3-3.9l.5-1.2a3 3 0 002.7-3v-2a3 3 0 00-2.7-3l-.5-1.3a3 3 0 00-.3-4l-1.4-1.4a3 3 0 00-4-.2 12 12 0 00-1.1-.4A3 3 0 0015 0h-2a3 3 0 00-3 2.7l-1.2.5a3 3 0 00-4 0L3.2 4.8a3 3 0 00-.1 4.1L2.7 10A3 3 0 000 13zM16 3c0-.6-.4-1-1-1h-2a1 1 0 00-1 1v.4c0 .5-.3.9-.8 1l-2 .8a1 1 0 01-1.3-.1l-.4-.4a1 1 0 00-1.4 0L4.7 6.1a1 1 0 000 1.4l.4.4c.3.3.4.9.1 1.3a10 10 0 00-.8 2 1 1 0 01-1 .8H3a1 1 0 00-1 1v2c0 .6.4 1 1 1h.4c.5 0 .9.3 1 .8l.8 1.9c.2.4.1 1-.2 1.3l-.3.3a1 1 0 000 1.4L6.1 23c.4.4 1 .4 1.4 0l.3-.3a1 1 0 011.3-.1c.6.4 1.4.7 2.1.9.5.1.8.5.8 1v.4c0 .6.4 1 1 1h2c.6 0 1-.4 1-1v-.4c0-.5.3-.9.8-1a10 10 0 002-.8 1 1 0 011.3.1l.2.2c.4.4 1 .4 1.4 0l1.4-1.4c.4-.4.4-1 0-1.4l-.2-.2a1 1 0 01-.1-1.3l.8-2a1 1 0 011-.8h.4c.6 0 1-.4 1-1v-2c0-.6-.4-1-1-1h-.4a1 1 0 01-1-.8 10 10 0 00-.9-2.1 1 1 0 01.1-1.3l.3-.3c.4-.4.4-1 0-1.4l-1.4-1.4a1 1 0 00-1.4 0L20 5a1 1 0 01-1.3.2 10 10 0 00-2-.8 1 1 0 01-.7-1V3z" clip-rule="evenodd"/>
</svg>
