<svg xmlns="http://www.w3.org/2000/svg" width="100" height="100" opacity=".3"><rect width="100%" height="100%" fill="#fbf7ee"/><path fill="#ffd37a" d="M89.8-5.4h-.2q-.6.3-.4.9l.3.2a47 47 0 0 1 6.5 4l1 .6q.7.2 1.3 0 0-.7-.7-1.1L93-4q-1.2-.8-2.4-1.3zm-2 2.6q-.5 0-.8.6.5.6 1.4.9a57 57 0 0 1 7.4 3.6q.4.4 1 .4t.8-.5q-.1-.7-.7-1a57 57 0 0 0-8-3.8q-.4-.2-1-.2zM25.5-1.5q-.5 0-.6.3-.2.7.4 1a43 43 0 0 1 6.6 7.8q.4.2.7-.3.3-1-.5-2a43 43 0 0 0-5.6-6.2l-.8-.6zm-1.3 3q-.4 0-.7.4 0 .5.3 1L28 8.7q.4.6 1 .8.8.1 1-.5-.1-.4-.5-.7-2.3-3-4.4-6-.2-.4-.8-.6zm37 11.5q-.6 0-1 .6 3 2.6 5.9 5.6.8 1 2 1.5 0-.2.3-.2.3-.1.2-.5l-.3-.4a65 65 0 0 0-5.6-5.8l-1.2-.7zm-35.2 3.7q-.8.1-1.3.7l-4.3 4.2Q19 23 18 24.7l.9.7 7.7-7.8q0-.5-.7-.6m33.7.3H59l-.4.4.3.6a88 88 0 0 0 6.5 5.4q.5.5 1 .6.9 0 1-.6 0-.8-.7-1a48 48 0 0 1-5.4-4.3q-.8-.9-2-1m-31 2.7h-.2q-.6.2-1 .7l-6.2 6-.2.4.2.3.7.5a63 63 0 0 0 7-6.5q.4-.4.4-.8t-.6-.6M2.2 35l-.6.3-4.5 2.8q-2 1.1-3.4 2.8.7.5 1.4.3c.7-.2.8-.5 1.2-.9q2.9-2 6-4 .7-.5.5-1.1-.1-.3-.6-.2m100 0-.6.3-4.5 2.8q-2 1.1-3.4 2.8.7.5 1.4.3c.7-.2.8-.5 1.2-.9q2.9-2 6-4 .7-.5.5-1.1-.1-.2-.6-.2M1.4 38.4A29 29 0 0 1-5 42.6q-1 .3-1.6 1v.5c.7.4 1.6 0 2.3-.3q3-1.5 5.8-3.8.4-.3.6-.9 0-.6-.6-.7zm100 0a29 29 0 0 1-6.5 4.2q-1 .3-1.6 1v.5c.7.4 1.6 0 2.3-.3q3-1.5 5.8-3.8.4-.3.6-.9 0-.6-.6-.7zM75 45.3q-.3 0-.4.6-.4 1.1-.5 2.4l-.7 4.6-.2 1.4v1.1q.4.6 1 .4.3-.2.3-.6a43 43 0 0 0 1.1-9c0-.4-.2-1-.5-1m-27.2.6-.7.5-.2.3q0 .2.2.4l6.1 6q.4.5 1 .7.8 0 1-.6 0-.5-.5-.8a63 63 0 0 0-7-6.5zm29 .8q-.6.2-.6.8v1.8a32 32 0 0 1-.4 6q0 .4.4.6.5.3.8 0l.4-.1v-.4q.5-3.9 0-7.8 0-.8-.7-.9zm-60.2 1.5-.8.2q-1.2.5-2.4 1.3l-4.6 3.1q-.7.5-.7 1.1.6.3 1.2 0 .8-.2 1.1-.6a47 47 0 0 1 6.5-4l.3-.2q.3-.5-.4-.9zm28.2.3-.9.7a14 14 0 0 0 2.4 2.7l4.2 4.2q.5.7 1.4.8.6 0 .6-.6 0-.3-.3-.5zm-26.3 2.3q-.6 0-1 .3a57 57 0 0 0-8 3.8q-.6.3-.7 1 .2.5.8.4c.6 0 .6-.2 1-.3a57 57 0 0 1 7.4-3.7 3 3 0 0 0 1.4-.9q-.2-.5-.9-.6m63.8 15.4q-.5 0-.6.5t.4.8q2.3 2.8 4.4 5.8.3.5.8.7.5.3.9-.2 0-.5-.3-1l-4.3-5.8q-.4-.5-1-.8zm-2.7 1.8q-.3 0-.5.4-.3 1 .5 2a43 43 0 0 0 5.6 6.2q.3.5.8.6t.8-.3q.2-.7-.4-1a43 43 0 0 1-6.6-7.8zm-57 2q-.7.2-.6.8 2.2 3.3 2.7 7.2.1.7.8.7.6 0 1.1-.5-.4-.5-.5-1.3a14 14 0 0 0-2.6-6.1q-.3-.7-1-.7zm-2.2 1.6-.5.3q0 .4 0 .8 0 1.2.6 2.3l.6 3.9q0 .6.3 1.2.5.8 1 .3t.4-1a20 20 0 0 0-2-7.4l-.2-.3zm26 .2h-.3l-.8.6a43 43 0 0 0-5.6 6.3q-.7 1-.5 2c.1.2.6.5.7.2a43 43 0 0 1 6.6-7.7q.6-.5.4-1 0-.4-.6-.4m1.3 3.1h-.2l-.8.8q-2 3-4.4 5.9-.3.3-.4.7.2.7 1 .5.6-.2 1-.8l4.2-5.7q.5-.5.3-1t-.7-.4m23.1 6h-.3q-.5.2-.8.7l-.9 1.2-2.8 3.7-1.4 2q-.2.5 0 .8.4.3 1-.3a43 43 0 0 0 5.6-7q.3-.4.2-.7 0-.5-.6-.5m2 2-.6.2a32 32 0 0 1-4 4.4L67 88.7q-.4.5-.2 1 .5.3 1.1-.2a30 30 0 0 0 5.7-5.3l.1-.4v-.4L73 83zm17 11.7h-.2q-.6.4-.4.9l.3.2a47 47 0 0 1 6.5 4l1 .7q.7.3 1.3-.1 0-.7-.7-1.1L93 96l-2.4-1.3zm-2 2.6q-.5 0-.8.6.5.6 1.4.9a57 57 0 0 1 7.4 3.6q.4.4 1 .4t.8-.5q-.1-.6-.7-1a57 57 0 0 0-8-3.8q-.4-.2-1-.2m-62.4 1.3q-.5 0-.6.3-.2.6.4 1a43 43 0 0 1 6.6 7.8q.4.2.7-.3.3-1-.5-2a43 43 0 0 0-5.6-6.2l-.8-.6zm-1.3 3q-.4 0-.7.4 0 .5.3 1l4.3 5.8q.4.6 1 .8.8.1 1-.5-.1-.4-.5-.7-2.3-3-4.4-6-.2-.4-.8-.6z"/><path fill="#ffb18a" d="M74-3.1h-.2q-.5.5-.4 1.2a20 20 0 0 0 2.2 7.6q.5.2.7-.2t0-.8q-.2-1.2-.6-2.3a19 19 0 0 1-.6-3.9q0-.6-.3-1.2a1 1 0 0 0-.8-.4m-3.3 1.8q-.6 0-1.1.5.4.5.5 1.3a14 14 0 0 0 2.6 6.1q.3.6 1 .7.8 0 .5-.7a16 16 0 0 1-2.7-7.2q-.1-.6-.8-.7M48.9 3.2q-.6.1-1 .7a14 14 0 0 0-2.6 6.1q0 .8-.5 1.3.5.5 1.1.5t.9-.7a16 16 0 0 1 2.7-7.2c.2-.3-.3-.8-.7-.7zM4.7 4.3q-.5 0-.8.4.2.6.9 1a47 47 0 0 0 8.5 4.7q.8.4 1.1-.1.2-.7-.6-1-4-2-7.7-4.3-.5-.5-1.1-.6zm46.3.4H51q-.2.2-.3.4a20 20 0 0 0-2 7.4q-.1.6.4 1 .6.3 1-.3.3-.5.3-1.2.1-2 .7-3.9l.6-2.3V5a1 1 0 0 0-.6-.3m38.5 1.9q-.7.1-1.2.5L82 12.5q-.4.3-.3.7 0 .2.4.3c.8.2 1.7-.5 2.3-1a48 48 0 0 1 5.4-4.3q.6-.4.7-1-.1-.7-1-.7M4.5 8.2q-.6 0-1 .5a62 62 0 0 0 9.8 4.9c.1-.3.7-.3.8-.6q0-.4-.5-.6l-8-3.8zM90.8 10q-1.2.5-2 1.5L83 17q.5.6 1.2.5.8-.2 1.3-.8a65 65 0 0 0 5.6-5.7q.2-.2.3-.5 0-.4-.2-.5zM2.4 16.9q-.7.1-.6.9a43 43 0 0 0 1.4 9.6q.6.3 1-.4v-1L4 24.4l-.7-4.6q-.1-1.4-.5-2.4 0-.5-.5-.6m100 0q-.6.1-.5.9a43 43 0 0 0 1.4 9.6q.6.3 1-.4v-1l-.2-1.5-.7-4.6q-.1-1.3-.5-2.4 0-.5-.5-.6M.6 18.2q-.6.1-.7 1-.6 3.8 0 7.7v.4l.4.2H1q.4-.2.4-.8a32 32 0 0 1-.4-5.9V19q0-.6-.5-.8m100 0q-.6.1-.7 1-.6 3.8 0 7.7v.4l.4.2h.8q.4-.2.4-.8a32 32 0 0 1-.4-5.9V19q0-.6-.5-.8m-21 7.5-.5.1q-.2.6.5 1c2 1.6 4.2 2.6 6 4.2l1.2.8q.7.3 1.4-.3-1.4-1.7-3.4-2.7l-4.5-2.9zm-40 0q-.9 0-1 .7t.7 1a48 48 0 0 1 5.4 4.2c.6.6 1.5 1.3 2.3 1q.4 0 .4-.3l-.3-.6a88 88 0 0 0-6.5-5.4zM80.4 29q-.7.1-.6.8.2.5.6.9 2.8 2.2 5.8 3.7c.7.3 1.6.7 2.2.3l.2-.2-.1-.3q-.7-.7-1.6-1a29 29 0 0 1-6.5-4.2m-42.2.2-.4.1-.2.5q0 .3.3.5a65 65 0 0 0 5.6 5.7q.5.5 1.2.8.8 0 1.3-.6l-5.9-5.5a6 6 0 0 0-1.9-1.5zm29.8 3.1h-.4l-1.2.8a65 65 0 0 0-5.6 5.7q-.3.3-.3.5 0 .4.2.5l.4.1a6 6 0 0 0 1.9-1.4q2.8-3 5.8-5.6-.2-.5-.8-.6m-49.6 2.3q-.7 0-.8.5 0 .6.7 1a57 57 0 0 0 7.9 3.8q.5.3 1 .2.7 0 1-.6-.7-.5-1.5-.9a57 57 0 0 1-7.4-3.6q-.4-.3-1-.4m51.2 1.8q-1 .2-2 1.1a48 48 0 0 1-5.3 4.3q-.7.4-.7 1 .2.6.9.6l1.1-.6a88 88 0 0 0 6.5-5.4l.3-.6q-.1-.3-.4-.3zm-52 .4-.7.2q0 .7.7 1.1l4.6 3.2q1.2.8 2.5 1.3.5.2 1 0t.3-.8l-.3-.2a47 47 0 0 1-6.4-4l-1.1-.6zm73.1 15-.7.5q-.3.5-.3 1.2l-.7 3.8-.6 2.3v.8c0 .2.5.4.7.3q.2 0 .3-.3 1.7-3.5 2-7.4.1-.7-.4-1zm3.4 1.9q-.7 0-.9.7a16 16 0 0 1-2.7 7.1q-.2.7.6.8c.8 0 .7-.4 1-.7a14 14 0 0 0 2.6-6.1q0-.8.5-1.4a2 2 0 0 0-1.1-.4m-61.9 2.2h-.4l-.3.3-.1.3q-.4 4 0 7.8c.1.4.3 1 .7 1q.5-.2.6-.9v-1.8a32 32 0 0 1 .3-6q0-.4-.4-.6zm2.8 0-.2.1-.4.7a43 43 0 0 0-1 9c0 .4.1 1 .5.9q.3 0 .5-.6l.4-2.4.7-4.7.2-1.4v-1a1 1 0 0 0-.7-.5M-.5 62.6l-.5.2-.2.2.1.3q.7.7 1.6 1A29 29 0 0 1 7 68.5q.7-.1.6-.8 0-.4-.6-.9a30 30 0 0 0-5.8-3.7q-.8-.5-1.7-.5m100 0-.5.2-.2.2.1.3q.7.7 1.6 1a29 29 0 0 1 6.5 4.2q.7-.1.6-.8-.2-.4-.6-.9a30 30 0 0 0-5.8-3.7q-.9-.5-1.7-.5m-30.2 1H69q-.7.2-1 .6-3.8 2.3-7.8 4.3-.8.3-.7 1 .5.5 1.2 0a47 47 0 0 0 8.5-4.7q.7-.3 1-1a1 1 0 0 0-.9-.2m-69 2a1 1 0 0 0-1 .3q1.3 1.7 3.4 2.8l4.5 2.9q.8.5 1.2 0 .2-.5-.5-1c-1.9-1.5-4.2-2.5-6-4l-1.2-.9zm100 0a1 1 0 0 0-1 .2q1.3 1.7 3.4 2.8l4.5 2.9q.8.5 1.2 0 .2-.5-.5-1c-1.9-1.5-4.2-2.5-6-4l-1.2-.9zm-31 1.7q-.5 0-1 .4l-8 3.8q-.5.2-.5.6.3.3.8.6a62 62 0 0 0 9.7-4.9q-.3-.5-1-.5zm-66.5 12a62 62 0 0 0-9.7 5q.3.5 1 .4.5 0 1-.3l8-3.9q.5-.1.5-.6c-.1-.3-.7-.2-.8-.5m100 0a62 62 0 0 0-9.7 4.8q.3.6 1 .5.5 0 1-.3l8-3.9q.5-.1.5-.6c-.1-.3-.7-.2-.8-.5m-99.5 3-.6.1a47 47 0 0 0-8.5 4.8q-.7.4-1 1 .5.4 1.2.2c.7-.2.7-.3 1-.5q3.8-2.5 7.8-4.3c.4-.2.9-.6.7-1q-.2-.3-.6-.3m100 0-.6.1a47 47 0 0 0-8.5 4.8q-.6.4-1 1 .5.4 1.2.2c.7-.2.7-.3 1-.5q3.8-2.5 7.8-4.3.8-.3.7-1-.1-.3-.6-.3M18.6 90q-.6 0-1.2.2-4.4 1.1-8.7 1.6-.8.1-1 .8.3.5 1.1.5 5-.5 9.6-1.9.7-.2 1.2-.6-.4-.6-1-.6m24 3.3c-.1.3-.7.2-.8.5q0 .4.5.7l8 3.8 1 .4q.8 0 1-.6a62 62 0 0 0-9.7-4.8m-25.4.3h-.6l-8.8 1.2q-.5 0-.6.5c0 .3.5.4.6.7a62 62 0 0 0 10.7-1.5q-.1-.6-.8-.8zM42 96.2q-.3 0-.5.3-.1.7.6 1 4 2 7.7 4.3.5.4 1.1.6.7 0 1.1-.3-.2-.6-.9-1a47 47 0 0 0-8.5-4.7zm32 .6h-.3q-.5.5-.4 1.2a20 20 0 0 0 2.2 7.6q.5.2.7-.2t0-.8q0-1.1-.6-2.3a19 19 0 0 1-.6-3.9q0-.6-.3-1.2a1 1 0 0 0-.8-.4m-3.3 1.8q-.6 0-1.1.5.4.5.5 1.3a14 14 0 0 0 2.6 6.1q.3.6 1 .7c.6.1.7-.4.5-.7a16 16 0 0 1-2.7-7.2q-.1-.7-.8-.7"/></svg>
